<svg xmlns="http://www.w3.org/2000/svg" class="svg">
	<defs>
		<!-- カレンダー（線） -->
		<symbol id="icon_calendar" viewBox="0 0 25 25">
			<path class="icon-calendar" d="M741.25,1107h5a1.25,1.25,0,0,1,1.25,1.25v20a1.25,1.25,0,0,1-1.25,1.25h-22.5a1.25,1.25,0,0,1-1.25-1.25v-20a1.25,1.25,0,0,1,1.25-1.25h5v-2.5h2.5v2.5h7.5v-2.5h2.5Zm3.75,7.5v-5h-3.75v2.5h-2.5v-2.5h-7.5v2.5h-2.5v-2.5H725v5Zm0,2.5H725v10h20Zm-17.5,2.5h6.25v5H727.5Z" transform="translate(-722.5 -1104.5)" />
		</symbol>

		<!-- カレンダー（ぬり） -->
		<symbol id="icon_calendar-fill" viewBox="0 0 25 25">
			<path class="icon-calendar-fill" d="M722.5,2173v11.25a1.25,1.25,0,0,0,1.25,1.25h22.5a1.25,1.25,0,0,0,1.25-1.25V2173Zm11.25,7.5H727.5v-5h6.25Zm7.5-17.5h5a1.25,1.25,0,0,1,1.25,1.25v6.25h-25v-6.25a1.25,1.25,0,0,1,1.25-1.25h5v-2.5h2.5v2.5h7.5v-2.5h2.5Z" transform="translate(-722.5 -2160.5)"/>
		</symbol>

		<!-- 歯車（線） -->
		<symbol id="icon_gear" viewBox="0 0 24.096 25.004">
			<path class="icon-gear" d="M804.675,1123.25a12.584,12.584,0,0,1-1.223-2.907,3.75,3.75,0,0,0,0-6.684,12.487,12.487,0,0,1,3.126-5.421,3.75,3.75,0,0,0,5.789-3.343,12.484,12.484,0,0,1,6.259,0,3.751,3.751,0,0,0,5.79,3.34,12.6,12.6,0,0,1,3.129,5.42,3.749,3.749,0,0,0,0,6.683,12.5,12.5,0,0,1-3.126,5.422,3.75,3.75,0,0,0-5.789,3.342,12.484,12.484,0,0,1-6.259,0,3.751,3.751,0,0,0-5.79-3.34A12.5,12.5,0,0,1,804.675,1123.25Zm7.075.245a6.235,6.235,0,0,1,2.812,3.462,9.949,9.949,0,0,0,1.874,0,6.254,6.254,0,0,1,7.22-4.169,9.91,9.91,0,0,0,.935-1.622,6.254,6.254,0,0,1,0-8.335,10.152,10.152,0,0,0-.937-1.623,6.25,6.25,0,0,1-7.217-4.167,10.021,10.021,0,0,0-1.873,0,6.254,6.254,0,0,1-7.22,4.169,9.949,9.949,0,0,0-.935,1.623,6.254,6.254,0,0,1,0,8.335,10.185,10.185,0,0,0,.937,1.622A6.245,6.245,0,0,1,811.75,1123.495Zm3.75-2.745a3.75,3.75,0,1,1,3.75-3.75A3.75,3.75,0,0,1,815.5,1120.75Zm0-2.5a1.25,1.25,0,1,0-1.25-1.25A1.25,1.25,0,0,0,815.5,1118.25Z" transform="translate(-803.452 -1104.498)" />
		</symbol>

		<!-- 歯車（ぬり） -->
		<symbol id="icon_gear-fill" viewBox="0 0 23.756 25.005">
			<path class="icon-gear-fill" d="M812.942,2160.763a12.5,12.5,0,0,1,5.114,0,5,5,0,0,0,6.765,3.9,12.477,12.477,0,0,1,2.554,4.432,5,5,0,0,0,0,7.81,12.562,12.562,0,0,1-2.558,4.428,5,5,0,0,0-6.762,3.9,12.5,12.5,0,0,1-5.114,0,5,5,0,0,0-6.765-3.907,12.477,12.477,0,0,1-2.554-4.432,5,5,0,0,0,0-7.808,12.562,12.562,0,0,1,2.558-4.428,5,5,0,0,0,6.762-3.9Zm2.558,15.988a3.75,3.75,0,1,0-3.75-3.75A3.75,3.75,0,0,0,815.5,2176.751Z" transform="translate(-803.622 -2160.498)" />
		</symbol>

		<!-- 吹き出し（線） -->
		<symbol id="icon_balloon" viewBox="0 0 18.612 15.22">
			<path class="icon-balloon" d="M6.27,1.5a4.77,4.77,0,1,0,0,9.53h4.45a2.39,2.39,0,0,1,2.67,2.09,6.31,6.31,0,0,0,1.86-1.6,8.51,8.51,0,0,0,1.86-5.25A4.78,4.78,0,0,0,12.34,1.5H6.27m0-1.5h6.07a6.27,6.27,0,0,1,6.27,6.27c0,4.59-3.38,9-7.38,9-.31,0-.62-.22-.23-.5a1.76,1.76,0,0,0,.9-1.43c0-.34-.28-.76-1.18-.76H6.27A6.27,6.27,0,1,1,6.27,0Z" />
		</symbol>

		<!-- 吹き出し（ぬり） -->
		<symbol id="icon_balloon-fill" viewBox="0 0 17.674 14.453">
			<path class="icon-balloon-fill" d="M629.723,373.832h-5.772a5.951,5.951,0,0,0,0,11.9h4.231c.851,0,1.116.395,1.116.718a1.668,1.668,0,0,1-.849,1.355c-.373.265-.08.478.212.478,3.8,0,7.013-4.145,7.013-8.5A5.952,5.952,0,0,0,629.723,373.832Z" transform="translate(-618 -373.832)" />
		</symbol>

		<!-- ベル（線） -->
		<symbol id="icon_bell" viewBox="0 0 12.18 17.01">
			<g id="icon_bell-1">
				<path class="icon-bell" d="M12,9.91l0-.06a.88.88,0,0,1-.14-.5V7.24A5.71,5.71,0,0,0,8.38,2a2.46,2.46,0,0,0-4.87.14A5.59,5.59,0,0,0,1.69,3.63,5.67,5.67,0,0,0,.39,7.24V9.35a1,1,0,0,1-.14.5l0,.06a1.55,1.55,0,0,0,0,1.52,1.51,1.51,0,0,0,1.31.76h9.18A1.51,1.51,0,0,0,12,11.43,1.53,1.53,0,0,0,12,9.91ZM1.5,10.69l0-.07a2.45,2.45,0,0,0,.35-1.27V7.24A4.2,4.2,0,0,1,5.27,3.13,1,1,0,0,1,5,2.46a1,1,0,0,1,1.92,0,.94.94,0,0,1-.23.63,4.2,4.2,0,0,1,3.61,4.15V9.35a2.45,2.45,0,0,0,.35,1.27l0,.07Z" />
				<path class="icon-bell" d="M7.34,12.73H4.42a1.51,1.51,0,0,0-1.14.53A1.48,1.48,0,0,0,3,14.49v0a3,3,0,0,0,5.85,0v-.06a1.51,1.51,0,0,0-1.48-1.75Zm0,1.56a1.47,1.47,0,0,1-2.9,0v-.06H7.34Z" />
			</g>
		</symbol>

		<!-- ベル（ぬり） -->
		<svg id="icon_bell-fill" viewBox="0 0 16.282 23.269">
			<g transform="translate(-219.538 -744.134)">
				<path class="icon-bell-fill" d="M235.632,759.655a1.5,1.5,0,0,0-.026-1.5l-.056-.094a2.061,2.061,0,0,1-.3-1.063v-3.055a7.577,7.577,0,0,0-4.885-7.077,2.892,2.892,0,0,0-5.78.158v.009a7.558,7.558,0,0,0-4.482,6.91V757a2.062,2.062,0,0,1-.3,1.063l-.056.094a1.5,1.5,0,0,0-.026,1.5l-.015.025h.03a1.5,1.5,0,0,0,1.3.75h13.285a1.5,1.5,0,0,0,1.3-.75h.029Z"/>
				<path class="icon-bell-fill" d="M229.484,762.558h-4.215a1.5,1.5,0,0,0-1.478,1.754l.014.079a3.623,3.623,0,0,0,7.143,0l.014-.079a1.5,1.5,0,0,0-1.478-1.754Z"/>
			</g>
		</svg>

		<!-- アロー -->
		<symbol id="icon_arrow" viewBox="0 0 9.061 5.591">
			<path class="icon-arrow" d="M700.632-24.05l4,4,4-4" transform="translate(-700.102 24.58)" fill="none" stroke-width="1.5"/>
		</symbol>

		<!-- ユーザー（人型） -->
		<symbol viewBox="0 0 17.308 22.715">
			<path id="icon_user" d="M399.6,853.379a8.654,8.654,0,0,1,17.308,0Zm8.654-9.736a6.49,6.49,0,1,1,6.49-6.49A6.488,6.488,0,0,1,408.254,843.643Z" transform="translate(-399.6 -830.663)" />
		</symbol>

		<!-- ユーザー（円形） -->
		<symbol id="icon_users" viewBox="0 0 26 26">
			<path class="icon-users" d="M89.9,827.6v-4.352c0-1.667,1.294-2.98,3.207-3.728a11.071,11.071,0,0,0-10.419,1.466A10.42,10.42,0,0,0,89.9,827.6Zm11.544-4.76c-.514-.693-2.222-1.412-4.394-1.412-2.608,0-4.55,1.037-4.55,1.82v4.68A10.4,10.4,0,0,0,101.444,822.835Zm-12.128-5.962a2.925,2.925,0,1,0-2.926-2.924A2.925,2.925,0,0,0,89.316,816.873Zm7.734,1.3a2.6,2.6,0,1,0-2.6-2.6A2.6,2.6,0,0,0,97.05,818.173Zm-4.55,12.35a13,13,0,1,1,13-13A13,13,0,0,1,92.5,830.523Z" transform="translate(-79.5 -804.523)" />
		</symbol>

		<!-- ストア -->
		<symbol viewBox="0 0 25 22.5">
			<path id="icon_store" d="M420.25,907.25V916a1.25,1.25,0,0,1-1.25,1.25H399a1.25,1.25,0,0,1-1.25-1.25v-8.75H396.5v-2.5l1.25-6.25h22.5l1.25,6.25v2.5Zm-20,0v7.5h17.5v-7.5Zm-1.2-2.5h19.9L418.2,901H399.8Zm2.45,3.75h10v3.75h-10Zm-3.75-13.75h22.5v2.5h-22.5Z" transform="translate(-396.5 -894.75)" />
		</symbol>

		<!-- 履歴 -->
		<symbol id="icon_history" viewBox="0 0 22.5 25">
			<path class="icon-history" d="M759.5,147.564h-7.2a7.828,7.828,0,0,1-.692,5H755.5v2h-5.3a7.883,7.883,0,0,1-7.7,2.186v9.814a1,1,0,0,0,1,1h16a1,1,0,0,0,1-1v-18A1,1,0,0,0,759.5,147.564Zm-7,15h-5v-2h5Zm3-4h-8v-2h8Zm-11.028-16a6.472,6.472,0,1,0,6.471,6.472A6.471,6.471,0,0,0,744.472,142.564Zm4.125,8.022h-5.05v-5.675h1.85v3.825h3.2Z" transform="translate(-738 -142.564)"/>
		</symbol>

		<!-- カルテ -->
		<symbol id="icon_carte" viewBox="0 0 22.5 25">
			<path class="icon-carte" d="M994.381,145.064v5h15v-5h2.509a1.241,1.241,0,0,1,1.241,1.241v20.018a1.242,1.242,0,0,1-1.241,1.241H991.873a1.243,1.243,0,0,1-1.242-1.241V146.3a1.242,1.242,0,0,1,1.242-1.241Zm2.5-2.5h10v5h-10Z" transform="translate(-990.631 -142.564)"/>
		</symbol>

		<!-- ダウンロード -->
		<symbol id="icon_download" viewBox="0 0 14 15">
			<g class="icon-download" transform="translate(-653 -977)">
				<line id="line" y2="9" transform="translate(660 977)" fill="none" stroke-width="2"/>
				<path id="arrow" d="M3623.09-69.6l4.931,4.931,4.931-4.931" transform="translate(-2968.159 1051.53)" fill="none" stroke-width="2"/>
				<rect id="border" transform="translate(653 990)" />
			</g>
		</symbol>

		<!-- 編集 -->
		<symbol id="icon_edit" viewBox="0 0 14.263 14">
			<g class="icon-edit" transform="translate(-943.352 -735.848)">
				<path d="M955.352,742.051v5.8h-10v-10h6.232a1.064,1.064,0,0,0,.753-.313l.834-.834a.5.5,0,0,0-.353-.853h-7.466a2,2,0,0,0-2,2v10a2,2,0,0,0,2,2h10a2,2,0,0,0,2-2v-7a.5.5,0,0,0-.854-.354l-.853.853A1,1,0,0,0,955.352,742.051Z" fill="#558ad2"/>
				<path d="M949.741,744.3l1.162-.447a.992.992,0,0,0,.348-.226l6.218-6.218a.5.5,0,0,0,0-.707l-.707-.707a.5.5,0,0,0-.707,0l-6.218,6.218a.992.992,0,0,0-.226.348l-.447,1.162A.5.5,0,0,0,949.741,744.3Z" fill="#558ad2"/>
			</g>
		</symbol>

		<symbol id="circle" viewBox="0 0 18 18">
			<circle class="circle" cx="9" cy="9" r="9" />
		</symbol>

	</defs>
</svg>
