<svg xmlns="http://www.w3.org/2000/svg" xmlns:xlink="http://www.w3.org/1999/xlink" width="258.415" height="84.033" viewBox="0 0 258.415 84.033">
  <defs>
    <linearGradient id="linear-gradient" x1="0.5" y1="1" x2="0.5" gradientUnits="objectBoundingBox">
      <stop offset="0" stop-color="#cea86c" stop-opacity="0.8"/>
      <stop offset="1" stop-color="#faedcb"/>
    </linearGradient>
    <linearGradient id="linear-gradient-2" x1="0.5" y1="1" x2="0.5" y2="0" xlink:href="#linear-gradient"/>
    <linearGradient id="linear-gradient-3" x1="0.5" y1="1" x2="0.5" y2="0" xlink:href="#linear-gradient"/>
    <linearGradient id="linear-gradient-4" x1="0.5" y1="1" x2="0.5" gradientUnits="objectBoundingBox">
      <stop offset="0.244" stop-color="#eb631a"/>
      <stop offset="0.465" stop-color="#df621b"/>
      <stop offset="0.862" stop-color="#bf611e"/>
      <stop offset="1" stop-color="#b36120"/>
    </linearGradient>
    <linearGradient id="linear-gradient-5" x1="0.5" y1="1" x2="0.5" y2="0" xlink:href="#linear-gradient"/>
    <linearGradient id="linear-gradient-6" x1="0.5" y1="1" x2="0.5" y2="0" xlink:href="#linear-gradient"/>
    <linearGradient id="linear-gradient-7" x1="0.5" y1="1" x2="0.5" y2="0" xlink:href="#linear-gradient"/>
  </defs>
  <g id="グループ_1584" data-name="グループ 1584" transform="translate(-90.792 -1084.984)">
    <g id="グループ_1579" data-name="グループ 1579">
      <g id="グループ_1577" data-name="グループ 1577">
        <path id="パス_6464" data-name="パス 6464" d="M335.65,1113.49h-7.056a.743.743,0,0,0-.743.743v15.488a3.417,3.417,0,0,1-3.417,3.417h-.854a3.417,3.417,0,0,1-3.417-3.417v-15.488a.743.743,0,0,0-.743-.743h-7.056a.744.744,0,0,0-.744.743v17.2a10.251,10.251,0,0,0,10.251,10.251h5.98v2.563a3.417,3.417,0,0,1-3.417,3.417H314.072a.743.743,0,0,0-.743.743v7.056a.744.744,0,0,0,.743.744h12.071a10.252,10.252,0,0,0,10.251-10.251v-31.719A.744.744,0,0,0,335.65,1113.49Z" fill="#3a3f48"/>
        <path id="パス_6465" data-name="パス 6465" d="M238.155,1123.741v17.2a.742.742,0,0,0,.743.743h7.056a.743.743,0,0,0,.743-.743V1125.45a3.417,3.417,0,0,1,3.417-3.417h.854a3.416,3.416,0,0,1,3.417,3.417v15.487a.743.743,0,0,0,.744.743h7.056a.743.743,0,0,0,.743-.743v-17.2a10.252,10.252,0,0,0-10.251-10.251h-4.271A10.251,10.251,0,0,0,238.155,1123.741Z" fill="#3a3f48"/>
        <path id="パス_6466" data-name="パス 6466" d="M291.973,1123.741v17.2a.742.742,0,0,0,.743.743h7.056a.743.743,0,0,0,.743-.743V1125.45a3.417,3.417,0,0,1,3.417-3.417h1.82a.744.744,0,0,0,.743-.744v-7.056a.743.743,0,0,0-.743-.743h-3.528A10.251,10.251,0,0,0,291.973,1123.741Z" fill="#3a3f48"/>
        <path id="パス_6467" data-name="パス 6467" d="M280.013,1129.721v-8.543h5.237a.743.743,0,0,0,.743-.743v-6.2a.743.743,0,0,0-.743-.743h-5.237v-6.945a.743.743,0,0,0-.743-.743h-7.056a.743.743,0,0,0-.744.743v6.945h-5.236a.743.743,0,0,0-.743.743v6.2a.742.742,0,0,0,.743.743h5.236v10.251a10.251,10.251,0,0,0,10.251,10.251H286.1a.743.743,0,0,0,.743-.743v-7.056a.743.743,0,0,0-.743-.743H283.43A3.417,3.417,0,0,1,280.013,1129.721Z" fill="#3a3f48"/>
        <path id="パス_6468" data-name="パス 6468" d="M233.13,1129.721a.748.748,0,0,0,.744-.726c.008-.31.009-.577.009-.788,0-8.046-3.88-14.717-13.724-14.717-7.855,0-13.724,4.973-13.724,14.23,0,8.491,5.736,13.96,14.238,13.96s11.52-4.541,12.6-8.456a.744.744,0,0,0-.72-.94h-7.512a.784.784,0,0,0-.627.343c-.708.966-1.887,1.365-3.745,1.365-3.805,0-5.1-2.192-5.514-4.271Zm-12.971-8.543a5.224,5.224,0,0,1,3.958,2.082,5.32,5.32,0,0,1,.942,2.19h-9.875C215.71,1122.792,217.276,1121.178,220.159,1121.178Z" fill="#3a3f48"/>
        <path id="パス_6469" data-name="パス 6469" d="M203.727,1126.654a12.943,12.943,0,0,0-4.383-7.868,13.557,13.557,0,0,0-5.518-2.878l-.965-.214-4.938-1.059-.564-.12a4.455,4.455,0,0,1-3.579-3.981c0-2.121,2.055-3.935,4.593-4.168.184-.005.364-.026.55-.026a19.939,19.939,0,0,1,8.346,1.814.741.741,0,0,0,.977-.329l3.219-6.3a.748.748,0,0,0-.34-1.016,28.632,28.632,0,0,0-12.2-2.716c-7.561,0-13.686,5.707-13.686,12.737,0,.385.018.761.052,1.128a12.451,12.451,0,0,0,4.707,8.517,14.059,14.059,0,0,0,6.167,2.827l5.2,1.1h.017a4.683,4.683,0,0,1,3.946,4.468,4.631,4.631,0,0,1-3.451,4.348,5.461,5.461,0,0,1-1.512.214h-1.443a19.989,19.989,0,0,1-10.268-2.828.744.744,0,0,0-1.051.291l-3.224,6.3a.748.748,0,0,0,.285.987,28.48,28.48,0,0,0,14.258,3.792c.3,0,.589-.008.888-.017a28.066,28.066,0,0,0,3.819-.367,13.2,13.2,0,0,0,10.242-12.72A12.876,12.876,0,0,0,203.727,1126.654Z" fill="#3a3f48"/>
      </g>
      <g id="グループ_1578" data-name="グループ 1578">
        <path id="パス_6470" data-name="パス 6470" d="M200.12,1150.289a5.2,5.2,0,0,0-1.967.421,1.081,1.081,0,0,1-.3.115c-.154,0-.178-.281-.178-.5v-.007c0-.588.024-.677.462-.767.9-.166,1.1-.166,1.1-.5,0-.217-.035-1.047-.308-1.047a.6.6,0,0,0-.2.064,7.623,7.623,0,0,1-.747.217.215.215,0,0,1-.2-.217c0-.051.011-.128.011-.179.012-.115.024-.217.036-.294a3.906,3.906,0,0,1,.126-.724c.1-.37.12-.364-.229-.434-.138-.028-.821-.144-1-.144-.119,0-.154.089-.154.191,0,.051.023.345.023.6,0,.357-.012.715-.023,1.072a.544.544,0,0,1-.1.383.6.6,0,0,1-.439.154,11.375,11.375,0,0,1-1.149.089c-.226.013-.249.064-.249.409,0,.932.189.945.343.945a11.787,11.787,0,0,0,1.209-.2c.024,0,.048-.013.071-.013a.27.27,0,0,1,.261.294v.127c0,.192-.012.212-.012.4v.435c0,.4-.047.408-.5.7-.651.435-1.04.718-1.7,1.126-.142.09-.273.128-.273.269a3.128,3.128,0,0,0,.607,1.166,7.489,7.489,0,0,0,2.084,1.4.3.3,0,0,0,.092.013c.32,0,1.043-.307,1.043-.932,0-.128-.082-1.278-.106-1.545-.012-.179-.036-.69-.036-.844a.44.44,0,0,1,.19-.4,4.363,4.363,0,0,1,2.086-.613,1.3,1.3,0,0,1,1.422,1.2,1.588,1.588,0,0,1-1.475,1.48,8.77,8.77,0,0,1-.976.071c-.175.034-.182.2-.155.368a2.6,2.6,0,0,0,.337.869c.08.114.327.079.514.043l.139-.027a4.862,4.862,0,0,0,1.948-.927,2.3,2.3,0,0,0,.948-1.9A2.443,2.443,0,0,0,200.12,1150.289Zm-3.591,4.061a.415.415,0,0,1-.09-.011h0a2.731,2.731,0,0,1-.749-.567.069.069,0,0,1,.005-.088,2.973,2.973,0,0,1,.751-.535c.119,0,.119.128.131.358,0,.051.011.115.011.179,0,.025.024.549.024.562C196.612,1154.3,196.6,1154.35,196.529,1154.35Zm5.76-5.756c-.1-.077-.19-.166-.285-.243a3.562,3.562,0,0,0-.889-.664c-.189,0-.711.638-.711.83,0,.141.13.243.214.307a17.5,17.5,0,0,1,1.576,1.43.465.465,0,0,0,.261.153c.237,0,.746-.626.746-.868C203.2,1149.4,202.609,1148.862,202.289,1148.594Z" fill="#3a3f48"/>
        <path id="パス_6471" data-name="パス 6471" d="M212.263,1147.279c.1.193-.106.26-.374.482q-.444.318-.887.674c-.662.543-1.336,1.087-1.951,1.679-.224.212-.485.449-.485.674,0,.3.391.721.592.934.674.721,1.407,1.383,2.14,2.033.2.178,1.017.84,1.017,1.076,0,.284-.722.958-1.005.958-.131,0-.3-.213-.367-.307-.449-.532-.946-1.029-1.431-1.526-.638-.638-1.288-1.277-1.868-1.962a1.8,1.8,0,0,1-.567-1.254,1.342,1.342,0,0,1,.26-.815,11.441,11.441,0,0,1,1.525-1.384,16.009,16.009,0,0,0,2.211-2.093c.047-.059.106-.141.178-.141.153,0,.513.381.643.511A2.892,2.892,0,0,1,212.263,1147.279Z" fill="#3a3f48"/>
        <path id="パス_6472" data-name="パス 6472" d="M221.579,1145.994c.283.024.4.128.4.234,0,.059-.023.268-.035.611-.011.248-.011.508-.011.756a.311.311,0,0,0,.342.343c.1,0,.556-.036.686-.036.58-.023,1.845-.094,2.353-.094.189,0,.272.071.272.6,0,.721-.142.71-.26.71-.166,0-1.052-.06-1.715-.06-.213,0-1.312.012-1.442.048a.379.379,0,0,0-.225.39v.414a1,1,0,0,0,.119.615,3.639,3.639,0,0,1,.366,1.655c0,1.9-1.265,4.02-1.785,4.02-.142,0-1.1-.3-1.1-.509,0-.094.2-.26.272-.331a3.815,3.815,0,0,0,.851-1.146.452.452,0,0,0,.059-.178.088.088,0,0,0-.082-.083.26.26,0,0,0-.1.012,1.109,1.109,0,0,1-.272.059c-1.028,0-1.407-1.111-1.407-1.974,0-1.088.473-2.128,1.667-2.235.059-.012.142-.047.142-.142,0-.437-.083-.5-.213-.5-.094,0-.638.059-.78.07-.615.06-2.14.225-2.708.343a.9.9,0,0,1-.177.024c-.189,0-.2-.165-.237-.319a7.023,7.023,0,0,1-.094-.852c0-.236.106-.212.686-.236.319-.012,3.1-.165,3.2-.189a.348.348,0,0,0,.26-.366,10.078,10.078,0,0,0-.118-1.467.253.253,0,0,1-.012-.094c0-.095.059-.142.154-.142C220.915,1145.952,221.295,1145.971,221.579,1145.994ZM220,1151.97c0,.355.083,1.005.556,1.005s.615-.6.615-.97-.107-1.04-.591-1.04C220.123,1150.965,220,1151.615,220,1151.97Z" fill="#3a3f48"/>
        <path id="パス_6473" data-name="パス 6473" d="M231.432,1147.254c0,.071-.028.113-.219.471a5.681,5.681,0,0,0-.343.993,6.212,6.212,0,0,0-.154,1.325c0,.094-.012.6.118.6.1,0,.166-.189.213-.308s.272-.638.414-.638c.106,0,.461.213.461.366,0,.036-.177.45-.284.734l-.106.283a4.644,4.644,0,0,0-.391,1.466c0,.166.024.3.024.379,0,.331-.626.473-.851.473-.26,0-.343-.213-.414-.438a9.819,9.819,0,0,1-.39-2.755,11.085,11.085,0,0,1,.272-2.424c.071-.3.153-.579.2-.875.012-.083.047-.29.154-.3a4.191,4.191,0,0,1,.638.248C231.035,1146.98,231.432,1147.124,231.432,1147.254Zm3.883-.947c.225,0,.249.141.3.319a15.658,15.658,0,0,1,.367,3.405,6.918,6.918,0,0,1-1.833,5.3c-.19.189-.674.662-.946.662-.189,0-.875-.579-.875-.828,0-.094.106-.165.177-.2a4.5,4.5,0,0,0,1.608-1.844,6.978,6.978,0,0,0,.544-2.98,11.445,11.445,0,0,0-.414-3.3.691.691,0,0,1-.023-.154C234.216,1146.425,235.185,1146.307,235.315,1146.307Z" fill="#3a3f48"/>
        <path id="パス_6474" data-name="パス 6474" d="M244.422,1152.526c0,1.229-.119,1.4,1.147,1.4.851,0,2.1-.142,2.955-.2.048,0,.119-.012.166-.012.225,0,.225.319.225.591,0,.3.012.58-.2.7a1.144,1.144,0,0,1-.391.071c-.437.023-1.7.082-2.092.082h-.58a4.352,4.352,0,0,1-2.045-.319,1.644,1.644,0,0,1-.473-1.43v-2.235a.253.253,0,0,0-.319-.248l-.6.118c-.2.036-1.549.319-1.62.319-.154,0-.189-.118-.237-.272a4.62,4.62,0,0,1-.141-.768c0-.2.177-.237.78-.331.26-.048.579-.095,1.005-.178l.851-.165a.344.344,0,0,0,.284-.343v-1.525a7.809,7.809,0,0,0-.047-1.183c0-.035-.012-.094-.012-.142,0-.083.035-.118.13-.118.059,0,.993.115,1.123.13s.178.04.163.137a3.806,3.806,0,0,0-.056.6c-.012.343-.012.674-.012,1.017v.816a.248.248,0,0,0,.307.248l2.542-.5c.154-.036,1.348-.3,1.36-.3.224,0,.875.615.875.851a.5.5,0,0,1-.118.237c-.19.2-.367.414-.533.626-.543.662-1.087,1.3-1.643,1.927-.118.143-.272.343-.473.343s-.91-.437-.91-.7c0-.083.13-.178.213-.26a10.2,10.2,0,0,0,1.324-1.407.075.075,0,0,0-.083-.083c-.071,0-.331.059-.414.071l-2.14.426a.369.369,0,0,0-.307.378Z" fill="#3a3f48"/>
        <path id="パス_6475" data-name="パス 6475" d="M261.875,1149.771c0,.2-.472.662-.626.815a20.54,20.54,0,0,1-6.42,4.458c-.391.189-.6.327-.757.3-.128-.023-.236-.3-.319-.442a3.307,3.307,0,0,1-.355-.709c0-.13.213-.154.367-.2a16.189,16.189,0,0,0,7.248-5.143.287.287,0,0,1,.2-.131C261.45,1148.718,261.875,1149.593,261.875,1149.771Zm-6.1-1.951c.154.106.722.5.722.674,0,.272-.556.91-.78.91a1.262,1.262,0,0,1-.474-.319,14.523,14.523,0,0,0-1.572-1.1c-.1-.059-.189-.118-.189-.224,0-.178.473-.935.745-.935A9.412,9.412,0,0,1,255.774,1147.82Z" fill="#3a3f48"/>
        <path id="パス_6476" data-name="パス 6476" d="M267.929,1149.475a8.123,8.123,0,0,1,1.656,1.135c.166.142.828.651.828.852s-.556.815-.793.815a.427.427,0,0,1-.26-.154,17.692,17.692,0,0,0-1.714-1.383.213.213,0,0,0-.118-.047c-.107,0-.142.095-.142.189v3.228c0,.473.024.934.024,1.407,0,.544-.012.615-.734.615-.473,0-.674-.012-.674-.4,0-.532.036-1.064.036-1.6v-6.74c0-.307-.024-.626-.036-.922,0-.059-.011-.165-.011-.213,0-.118.035-.177.154-.177.07,0,.318.035.4.047.532.071.921.045.894.285a6.573,6.573,0,0,0-.066.779c0,.177.012.4.012.7v1.773c0,.1.059.118.094.118a.127.127,0,0,0,.107-.047C267.67,1149.641,267.8,1149.475,267.929,1149.475Z" fill="#3a3f48"/>
        <path id="パス_6477" data-name="パス 6477" d="M276.072,1150.516c0,.532.023,1.075.023,1.607,0,.367-.106.415-.662.415s-.709-.036-.709-.355c0-.556.035-1.1.035-1.655v-2.495c0-.32-.023-.627-.035-.935,0-.07-.012-.141-.012-.212s.024-.118.106-.118c.119,0,.852.106,1.017.13.249.047.235.064.231.262,0,.047-.006.341-.006.707,0,.178.012.39.012.662Zm4.634-.462a18.015,18.015,0,0,1-.129,2.519,4.012,4.012,0,0,1-1.443,2.743,5.431,5.431,0,0,1-1.3.828c-.177,0-.993-.592-.993-.8,0-.107.225-.2.319-.249a3.337,3.337,0,0,0,2.105-2.613,14.813,14.813,0,0,0,.142-2.282v-2.565a6.19,6.19,0,0,0-.036-.816,1.146,1.146,0,0,1-.023-.2c0-.095.047-.118.142-.118a10.4,10.4,0,0,1,1.17.118c.1.023.089.087.079.195-.006.07-.032.432-.032.621Z" fill="#3a3f48"/>
        <path id="パス_6478" data-name="パス 6478" d="M291.752,1150.22c.544,0,1.313-.035,1.466-.035.32,0,.332.094.332.744,0,.379-.012.6-.32.6-.5,0-.993-.024-1.478-.024h-5.438c-.485,0-.982.024-1.478.024-.308,0-.319-.225-.319-.592,0-.662.023-.756.33-.756.154,0,.97.035,1.467.035Z" fill="#3a3f48"/>
      </g>
    </g>
    <line id="線_173" data-name="線 173" y2="84.033" transform="translate(349.207 1084.984)" fill="none"/>
    <line id="線_174" data-name="線 174" y2="84.033" transform="translate(90.792 1084.984)" fill="none"/>
    <line id="線_175" data-name="線 175" x1="258.415" transform="translate(90.792 1084.984)" fill="none"/>
    <line id="線_176" data-name="線 176" x1="258.415" transform="translate(90.792 1169.016)" fill="none"/>
    <g id="グループ_1583" data-name="グループ 1583">
      <path id="パス_6479" data-name="パス 6479" d="M157.791,1124.89A27.092,27.092,0,1,1,130.7,1097.8,27.092,27.092,0,0,1,157.791,1124.89Z" fill="#bfd4ed"/>
      <path id="パス_6480" data-name="パス 6480" d="M105.215,1129.025a52.812,52.812,0,0,1,6.211-9.262,56.014,56.014,0,0,1,6.925-6.428,19.149,19.149,0,0,1,6.306-3.268c-.385,8.239,3.039,16.476,7.332,23.365,1.6,2.574,10.244,10.849,6.779,14.048-2.588,2.389-11.133,1.07-14.27.229-4.787-1.283-8.443-5.058-12.456-7.751-2.882-1.934-6.146-3.579-6.1-7.528Z" fill="#faedcb"/>
      <path id="パス_6481" data-name="パス 6481" d="M125.8,1135.745a17.745,17.745,0,0,0-6.637,3.176c.114-.621,1.509-1.946,2.181-2.523a12.058,12.058,0,0,0-4.662,2.815,5.745,5.745,0,0,1,1.585-2.48c-1.51.485-5.516,3.053-5.836,4.452-.313,1.369,2.669,3.231,3.579,4.062a21.692,21.692,0,0,0,4.185,2.713c3.744,2.086,8.26,4.013,12.575,2.869,6.64-1.761,3.48-7.29.884-11.56Z" fill="#cea86c"/>
      <path id="パス_6482" data-name="パス 6482" d="M114.763,1142.587c1.216-4.318-1.025-5.915-3.04-6.751-2.494-1.034-3.167-1.373-3.753-3.033-.933-2.644.014-7.692,2.588-12.1a25.472,25.472,0,0,0-6.307,10.053,27.089,27.089,0,0,0,9.982,15.645,14.079,14.079,0,0,0,1.631-.165C115.788,1145.07,114.65,1142.989,114.763,1142.587Z" fill="#b36120"/>
      <path id="パス_6483" data-name="パス 6483" d="M149.856,1144.047a27.092,27.092,0,0,1-38.314,0l19.337,4.621Z" fill="#faedcb"/>
      <path id="パス_6484" data-name="パス 6484" d="M133.1,1151.871a2.7,2.7,0,0,0,.548-1.6,2.866,2.866,0,0,0-.942-2.049l-1.825.445-4.84-1.157a3.259,3.259,0,0,0-1.927,2.761,2.572,2.572,0,0,0,.186.943,27.164,27.164,0,0,0,6.4.767C131.508,1151.982,132.307,1151.94,133.1,1151.871Z" fill="#cea86c"/>
      <path id="パス_6485" data-name="パス 6485" d="M114.092,1145.521a7.665,7.665,0,0,0,1.811,4.819,2.191,2.191,0,0,0,2.691.638c.639,2.281,3.649,3.923,4.972,2.418.775,1.369,3.337.653,3.924-1.356a4.179,4.179,0,0,0,2.093-3.812,8.216,8.216,0,0,0-2.779-4.973q-4.581-4.023-10.992-2.174c-1.7.49-3.714,1.785-4.237,2.986Z" fill="#faedcb"/>
      <path id="パス_6486" data-name="パス 6486" d="M118.745,1150.857a8.13,8.13,0,0,0,.488-3.618C120.388,1147.908,120.266,1150.219,118.745,1150.857Z" fill="url(#linear-gradient)"/>
      <path id="パス_6487" data-name="パス 6487" d="M127.579,1151.48a12.654,12.654,0,0,0-.41-3.482A2.453,2.453,0,0,1,127.579,1151.48Z" fill="url(#linear-gradient-2)"/>
      <path id="パス_6488" data-name="パス 6488" d="M123.642,1153.138a15.7,15.7,0,0,0,.03-4.379C124.827,1149.428,125.01,1152.043,123.642,1153.138Z" fill="url(#linear-gradient-3)"/>
      <g id="グループ_1582" data-name="グループ 1582">
        <path id="パス_6489" data-name="パス 6489" d="M154.571,1126.41c2.519-11.563-6.478-20.691-20.406-23.066,1.011.734,2.147,1.374,2.25,2.025-.6-.666-2.648-1.327-4.234-1.447.585.257,1.352,1.048,1.322,1.282a6.643,6.643,0,0,0-3.523-.469c.5.173.934.365.976.563-9.526.51-20.016,12.515-20.016,20.7,0,3.572,2.915,7.228,6.182,5.43,5.056-2.78,10.4.938,10.772,5.048.289,3.182,3.421,9.517,6.675,9.331,4.951-.282,6.164-2.061,10.442-.168,3.05,1.351,7.041-1.264,8.413-4.367C154.466,1138.917,154.045,1128.824,154.571,1126.41Z" fill="#b36120"/>
        <path id="パス_6490" data-name="パス 6490" d="M150.5,1121.1c-1.7-2.863-.514-7.284,1.664-5.44,1.29,1.092,2.43,4.692,1.3,6.075Z" fill="#943a22"/>
        <g id="グループ_1580" data-name="グループ 1580">
          <path id="パス_6491" data-name="パス 6491" d="M151.452,1122.959a1.64,1.64,0,0,1-1.365-.828.651.651,0,0,1,.035-.7.282.282,0,0,1,.494,0,1.059,1.059,0,0,0,1.822,0,.282.282,0,0,1,.494,0,.653.653,0,0,1-.034.7A1.847,1.847,0,0,1,151.452,1122.959Z" fill="#fff" opacity="0.2"/>
          <path id="パス_6492" data-name="パス 6492" d="M151.506,1121.867c-.673,0-1.182-.776-1.135-1.729s.634-1.731,1.306-1.731,1.181.777,1.133,1.731S152.178,1121.867,151.506,1121.867Z"/>
          <path id="パス_6493" data-name="パス 6493" d="M152.027,1119.566c-.138,0-.242-.158-.233-.353s.13-.353.267-.353.241.159.232.353S152.164,1119.566,152.027,1119.566Z" fill="#fff" opacity="0.75"/>
        </g>
        <path id="パス_6494" data-name="パス 6494" d="M130.612,1111.553c-4.4,6.28-3.011,17.333-.746,23.388,2.324,6.215-3.991,8.772-7.837,4.6-5.381-5.832-8.3-8.012-8.677-11.74-.589-5.844,7.03-16.285,12.581-18.358C130.378,1107.787,132.883,1108.314,130.612,1111.553Z" fill="#943a22"/>
        <path id="パス_6495" data-name="パス 6495" d="M141.684,1138.374c5.989,0,.323-12.393.885-12.876,3.584-3.073,2.284-9.15-.085-10.148-2.95-1.242-8.223,2.655-7.245,7.711.572,2.959,3.067,1.275,3.306,5.978C138.725,1132.56,138.866,1138.374,141.684,1138.374Z" fill="#943a22"/>
        <path id="パス_6496" data-name="パス 6496" d="M149.483,1144.137c5.158,0,8.964-3.429,10.3-9.684,1.432-6.683-.12-11.4-4.177-12.59-5.093-1.5-6.394-2.156-6.965-5.4-.233-1.325.9-2.1.3-4.19-.593-2.072-3.74-4.879-6.907-5.1.516.17,2.025.738,2.113,1.4a5.958,5.958,0,0,0-2.791-.831,2.547,2.547,0,0,1,1.456,1.172c-1.492-.059-1.926,3.2.6,5.461,1.415,1.266,4.746,3.451,1.295,6.688-2.682,2.515-3.252,5.019-3.252,10.549,0,.949.016,2.192,0,2.908C141.362,1139.122,144.71,1144.137,149.483,1144.137Z" fill="#faedcb"/>
        <g id="グループ_1581" data-name="グループ 1581">
          <path id="パス_6497" data-name="パス 6497" d="M141.924,1123.671a2.146,2.146,0,0,1-1.711-.89.621.621,0,0,1,.03-.752.379.379,0,0,1,.614,0,1.425,1.425,0,0,0,2.261,0,.377.377,0,0,1,.612,0,.621.621,0,0,1-.029.752A2.345,2.345,0,0,1,141.924,1123.671Z" fill="#fff" opacity="0.2"/>
          <path id="パス_6498" data-name="パス 6498" d="M142.263,1122.486a1.636,1.636,0,0,1-1.716-1.607,1.8,1.8,0,0,1,1.272-2.085,1.636,1.636,0,0,1,1.714,1.608A1.794,1.794,0,0,1,142.263,1122.486Z"/>
          <path id="パス_6499" data-name="パス 6499" d="M142.656,1120.075a.332.332,0,0,1-.294-.378.367.367,0,0,1,.325-.38.334.334,0,0,1,.292.38A.364.364,0,0,1,142.656,1120.075Z" fill="#fff" opacity="0.75"/>
        </g>
        <path id="パス_6500" data-name="パス 6500" d="M158.358,1137.1c-.041-.119.111-2.912-.539-4.214a5.976,5.976,0,0,1-3.178,3.459,9.1,9.1,0,0,1,.316,3.194c0,1.65.812,2.577,1.855,2.387,1.313-.239,1.474-1.814,1.474-3.412C158.286,1137.936,158.358,1137.68,158.358,1137.1Z" fill="url(#linear-gradient-4)"/>
        <line id="線_177" data-name="線 177" x2="0.403" y2="4.356" transform="translate(156.7 1135.766)" fill="none" stroke="#707070" stroke-linecap="round" stroke-linejoin="round" stroke-width="0.598"/>
        <path id="パス_6501" data-name="パス 6501" d="M151.859,1136.674c3.481.513,7.05-2.315,6.431-8.426" fill="none" stroke="#a5a595" stroke-linecap="round" stroke-linejoin="round" stroke-width="0.598"/>
        <path id="パス_6502" data-name="パス 6502" d="M161.483,1125.945a3.072,3.072,0,1,1-3.071-3.071A3.072,3.072,0,0,1,161.483,1125.945Z"/>
        <path id="パス_6503" data-name="パス 6503" d="M158.412,1124.727a.592.592,0,1,1,.593-.59A.592.592,0,0,1,158.412,1124.727Z" fill="#fff" opacity="0.75"/>
        <path id="パス_6504" data-name="パス 6504" d="M158.066,1133.1a6.2,6.2,0,0,0,.528,2.848" fill="none" stroke="#a5a595" stroke-linecap="round" stroke-linejoin="round" stroke-width="0.598"/>
        <path id="パス_6505" data-name="パス 6505" d="M152.218,1136.544a.643.643,0,1,1-.643-.643A.643.643,0,0,1,152.218,1136.544Z" fill="#a5a595"/>
      </g>
      <path id="パス_6506" data-name="パス 6506" d="M146.648,1146.641c-4-3.619-11.731-3.715-14.937.109-2.061,2.457-4.261,6.748-.3,7.362a2.019,2.019,0,0,0,3.608,1.328c1.116,1.583,3.765,0,4-2.13,1.8.489,3.651-2.815,3.337-4.586Z" fill="#faedcb"/>
      <path id="パス_6507" data-name="パス 6507" d="M135.03,1155.377a12.285,12.285,0,0,0-.047-3.255A2.565,2.565,0,0,0,135.03,1155.377Z" fill="url(#linear-gradient-5)"/>
      <path id="パス_6508" data-name="パス 6508" d="M138.974,1153.26a4.456,4.456,0,0,0,.008-3.1C138.568,1151.1,138.455,1152.658,138.974,1153.26Z" fill="url(#linear-gradient-6)"/>
      <path id="パス_6509" data-name="パス 6509" d="M131.423,1154.085a9.658,9.658,0,0,1,.592-3.35C130.962,1151.7,130.436,1153.159,131.423,1154.085Z" fill="url(#linear-gradient-7)"/>
    </g>
  </g>
</svg>
