<svg xmlns="http://www.w3.org/2000/svg" width="207.176" height="25.061" viewBox="0 0 207.176 25.061">
  <g id="logo_pharmarket" transform="translate(1717.259 342.334)">
    <g id="グループ_93" data-name="グループ 93" transform="translate(-1717.259 -342.334)">
      <path id="パス_136" data-name="パス 136" d="M-1693.276-321.077h-15.45c-4.713,0-8.533-4.453-8.533-9.945v-1.368c0-5.493,3.82-9.944,8.533-9.944h15.45Z" transform="translate(1717.259 342.334)" fill="#327cb3"/>
      <path id="パス_137" data-name="パス 137" d="M-1617.39-342.334h-14.425v4.5h14.425a5.6,5.6,0,0,1,5.592,5.589v1.078a5.6,5.6,0,0,1-5.592,5.591h-9.869v-10.556h-4.556v18.86h4.556v-3.8h9.869a10.1,10.1,0,0,0,10.092-10.09v-1.078A10.1,10.1,0,0,0-1617.39-342.334Z" transform="translate(1657.928 342.334)" fill="#2b3033"/>
    </g>
    <path id="パス_138" data-name="パス 138" d="M-1378.9-323.22c.063,3.079-.65,4.953-1.881,6.325a6.39,6.39,0,0,1-5.087,2.1,6.378,6.378,0,0,1-4.2-1.368,6.641,6.641,0,0,1-2.375-4.581v-14h3.359v4.936h5.12v2.969h-5.12v5.966a4.164,4.164,0,0,0,.933,2.269,3.022,3.022,0,0,0,2.286.872,3.312,3.312,0,0,0,2.576-1.009c.737-.9,1.082-1.633,1.033-4.48Zm-126.248-7.008a5.7,5.7,0,0,0-3.894,1.445v-7.161h-3.308v20.895h3.308v-7.917a4.772,4.772,0,0,1,1.068-3,2.872,2.872,0,0,1,2.212-1.266,2.223,2.223,0,0,1,1.943.676,5.4,5.4,0,0,1,.591,3.089v8.421h3.28v-8.582a8.02,8.02,0,0,0-1.265-4.922A4.7,4.7,0,0,0-1505.152-330.228Zm20.04,15.179h-2.951s-.01-.836-.025-1.35a5.876,5.876,0,0,1-1.178.824,6.937,6.937,0,0,1-3.309.786,4.879,4.879,0,0,1-3.472-1.245,4.411,4.411,0,0,1-1.339-3.357,4.835,4.835,0,0,1,2.27-4.18c1.422-.969,3.484-1.531,6.677-1.46-.185-1.509-.313-2.186-2.655-2.228a8.932,8.932,0,0,0-5.018,1.566l-.7-2.969a10.848,10.848,0,0,1,5.721-1.565c2.1,0,3.583.446,4.542,1.364a5.819,5.819,0,0,1,1.439,4.355Zm-8.5-3.11a2.089,2.089,0,0,0,1.475.48,3.577,3.577,0,0,0,2.612-1.086,3.988,3.988,0,0,0,1.1-3.4c-2.437-.04-3.667.275-4.538.816a2.109,2.109,0,0,0-1.149,1.883A1.67,1.67,0,0,0-1493.608-318.159Zm37.544-12.069a4.7,4.7,0,0,0-3.892,1.944,4.252,4.252,0,0,0-3.723-1.944,4.132,4.132,0,0,0-2.931,1.22l-.011-.959h-3.222v14.919h3.308v-8.292a4.737,4.737,0,0,1,.842-2.851,2.046,2.046,0,0,1,1.57-1.068c1.053,0,1.356.45,1.455.6a5.4,5.4,0,0,1,.491,2.854v8.759h3.281v-8.629a4.2,4.2,0,0,1,.8-2.617,2.019,2.019,0,0,1,1.619-.965c1.053,0,1.345.438,1.442.582a5.526,5.526,0,0,1,.479,2.869v8.759h3.28v-9.278a6.919,6.919,0,0,0-1.142-4.4A4.4,4.4,0,0,0-1456.064-330.228Zm-22.285,2.083-.017-1.823h-3.274v14.919h3.358V-322.2a4.511,4.511,0,0,1,1.556-3.576c1.072-.948,2.307-1.409,4.916-1.409v-3.046C-1475.01-330.275-1476.817-329.527-1478.349-328.145Zm41.573,13.1h-2.951s-.01-.836-.025-1.35a5.88,5.88,0,0,1-1.178.824,6.937,6.937,0,0,1-3.31.786,4.879,4.879,0,0,1-3.472-1.245,4.411,4.411,0,0,1-1.339-3.357,4.835,4.835,0,0,1,2.27-4.18c1.422-.969,3.484-1.531,6.677-1.46-.185-1.509-.313-2.186-2.655-2.228a8.933,8.933,0,0,0-5.018,1.566l-.7-2.969a10.848,10.848,0,0,1,5.721-1.565c2.1,0,3.583.446,4.542,1.364a5.821,5.821,0,0,1,1.438,4.355Zm-8.5-3.11a2.09,2.09,0,0,0,1.475.48,3.577,3.577,0,0,0,2.612-1.086,3.988,3.988,0,0,0,1.1-3.4c-2.437-.04-3.667.275-4.537.816a2.109,2.109,0,0,0-1.149,1.883A1.669,1.669,0,0,0-1445.272-318.159Zm15.259-9.986-.016-1.823h-3.275v14.919h3.359V-322.2a4.51,4.51,0,0,1,1.555-3.576c1.073-.948,2.307-1.409,4.916-1.409v-3.046C-1426.674-330.275-1428.48-329.527-1430.013-328.145Zm22.3-1.823h-4.671l-5.874,4.926v-10.9h-3.306v20.895h3.306v-5.515l6.012,5.515h4.544l-8.576-7.775Zm13.529,7.062a10.524,10.524,0,0,1-.092,1.562h-10.48a4.06,4.06,0,0,0,1.161,2.489,4.151,4.151,0,0,0,3.056,1.136,9.067,9.067,0,0,0,4.545-1.366l.991,2.825a11.5,11.5,0,0,1-5.7,1.471,7.1,7.1,0,0,1-5.387-2.188,8.111,8.111,0,0,1-2.053-5.794,8.417,8.417,0,0,1,1.917-5.806,6.733,6.733,0,0,1,5.252-2.171,6.323,6.323,0,0,1,5.027,2.071A8.572,8.572,0,0,1-1394.18-322.906Zm-10.571-1.023h7.241a4.348,4.348,0,0,0-.932-2.49,3.179,3.179,0,0,0-2.548-1.039,3.5,3.5,0,0,0-2.725,1.069A4.347,4.347,0,0,0-1404.751-323.929Zm-117.791-11.754h-5.794v3.1l5.794,0c3.937-.02,4.568,1.4,4.627,3.193,0,1.493-.414,3.478-4.627,3.478h-2.3V-331.5h-3.49v16.45h3.49v-7.794h2.3c6.6,0,8.091-3.661,8.091-6.732C-1514.475-331.309-1514.713-335.77-1522.542-335.683Z" transform="translate(-131.184 -4.437)" fill="#2b3033"/>
  </g>
</svg>
