<svg xmlns="http://www.w3.org/2000/svg" xmlns:xlink="http://www.w3.org/1999/xlink" width="336.977" height="238.522" viewBox="0 0 336.977 238.522"><defs><radialGradient id="a" cx="0.5" cy="0.5" r="0.417" gradientTransform="matrix(0.969, 0.502, -0.707, 1.088, 362.764, 88.861)" gradientUnits="objectBoundingBox"><stop offset="0" stop-color="#fff"/><stop offset="1" stop-color="#fff" stop-opacity="0"/></radialGradient><radialGradient id="b" cx="0.5" cy="0.5" r="0.417" gradientTransform="matrix(0.968, 0.502, -0.706, 1.088, 362.569, 88.179)" xlink:href="#a"/><radialGradient id="c" cx="0.5" cy="0.5" r="0.417" gradientTransform="matrix(0.969, 0.502, -0.706, 1.088, 358.761, 88.784)" xlink:href="#a"/><radialGradient id="d" cx="0.5" cy="0.5" r="0.417" gradientTransform="matrix(0.968, 0.502, -0.706, 1.088, 358.566, 88.102)" xlink:href="#a"/></defs><g transform="translate(281.702 -541.344)"><g transform="translate(-281.702 541.344)"><path d="M-102.511,637.614c45.719-5.169,51.368-92.107-7.083-72.03,34.243-.594,19.07,41.982-11.73,33.725C-119.313,627.878-111.637,638.645-102.511,637.614Z" transform="translate(392.872 -526.624)" fill="#faedcb"/><path d="M-74.276,582.384c-4.441,12.094-10.342,20.245-17.724,25.68a23.74,23.74,0,0,0,1.549-12.155c-4.639,8.767-15.7,13.708-20.559,13.263l3.7,14.387C-87.381,619.979-75.644,600.537-74.276,582.384Z" transform="translate(400.022 -512.897)" fill="#cea86c"/><path d="M-144.849,641.033c-13.285,6.644-45.611,9.739-53.139,3.987-12.839,4.868-30.111,6.641-51.808,5.017-3.1,4.428-5.313,7.084-7.084,10.919a231.026,231.026,0,0,1-24.822-1.639c3.395-13.579,19.726-26.034,44.969-27.36,13.232-.7,11.757-18.467,16.385-28.784,6.568-14.653,17.179-17.272,32.8-22.441a130.286,130.286,0,0,1,38.313-6.4c15.14-.3,37.081-.345,46.772,13.51,3.6,5.154,4.58,5.736,1.83,10.687-6,10.825-16.829,18.283-25.938,26.337Q-135.712,632.943-144.849,641.033Z" transform="translate(281.702 -518.533)" fill="#cea86c"/><path d="M-207.415,627.312c9.521,16.828,49,25.462,69.818,27.677s39.053,41.664,58.538,47.866c7.53,9.739,20.259,11.722,28.23,9.065,8.1-4.335,6.2-14.761-5.2-19.252-41.183-5.755-1.9-54.42-32.45-93.829" transform="translate(333.196 -501.49)" fill="#cea86c"/><path d="M-239.633,593.32c1.178-45.463,90.333-.593,121.033-4.138s95.648,10.041,113.064,28.489c34.233,36.265-8.73,88.076,32.451,93.834,8.266,4.866,10.037,13.728,1.475,18.742-7.97,2.66-16.974,1.182-24.5-8.557-19.487-6.2-34.763-40.233-55.182-44.829C-69,672.877-75.94,665.051-84.352,651.328c-16.5,2.633-28.506.757-48.774-8.061-20.826,20.452-46.73,16.031-89.83,14.258-1.771,4.726-4.722,10.625-6.493,14.758h-29.226C-262.22,661.807-243.009,641.914-220,641c14.759-.6,31.735.144,38.23-5.173-11.978-2.618-21.622-12.016-25.8-17.446.227,3.286,3.933,8.4,7.357,10.728-2.933.352-10.845-4.682-14.343-9.831-.09,1.934,1.986,6.57,4.446,9.025-7.932-3.127-11.879-9.995-15.787-16.862" transform="translate(297.37 -519.525)" fill="#faedcb"/><path d="M-27.1,621.628c4.592-5.43,11.779-17.656,5.745-24.329-8.336,11.111-23.242,8.671-35.14,5.891a78.863,78.863,0,0,0-19.289-1.6c-12.978.2-25.4.207-36.349-7.833-21.695-15.94-29.287-26.049-58.511-30.034a12.746,12.746,0,0,0,8.134-2.961c-12.077,1.725-14-10-34.2-6.414-27.457,4.871-37.507,68.839-17.714,59.778,36.757-16.827,33.542,6.458,60.814,15.5,27.6,9.155,48.118-.591,79.7-1.773,0,0-16.837,4.336-20.191,6.043,7.648-1.614,15.366-1.9,19.9-1.319-5.609,1.769-11.1,3.071-15.741,5.293a37.5,37.5,0,0,1,13.083.019c-3.276.679-8.424,2.3-10.262,3.862C-80.2,646.5-74.387,652.9-61.209,656.192c10.67,2.67,23.39,2.883,31.708-5.41a18.742,18.742,0,0,0,5.6-11.534c.195-2.453-4.539-16.014-4.289-16.322C-27.852,622.518-27.488,622.086-27.1,621.628Z" transform="translate(321.162 -532.806)" fill="#b36120"/><path d="M-217.871,544.093c-8.195-.285-17.386.7-25.465,14.991-3.463,6.126-22.836,46.942,2.259,54.029" transform="translate(301.088 -539.466)" fill="#943a22"/><path d="M-182.086,552.857c-11.273-9.109-28.063-12.065-36.752-11.431a8.417,8.417,0,0,1,2.858,2.333,21.489,21.489,0,0,0-9.748-.743c2.438.425,4.057,1.758,4.1,2.281a15.738,15.738,0,0,0-8.661.687c1.795.068,2.084.381,2.653.847-6.754,4.69-20.523,13.527-22.067,41.774-.361,6.559,1,25.022,3.322,30.482,3.065,7.191,15.535,15.906,23.191,15.21,10.662-.972,18.884-.984,28.506-7.572,6.192-4.246,10.655-9.275,11.42-16.591,1.067-10.132,11.283-11.385,18.677-15.266C-155.864,590.289-177.67,556.427-182.086,552.857Z" transform="translate(303.844 -541.344)" fill="#b36120"/><path d="M-234.394,571.5c3.469-7.839-1.749-14.209-6.822-10.293-3,2.316-10.63,10.046-2.985,18.087" transform="translate(305.409 -528.399)" fill="#943a22"/><path d="M-240.562,570.007a5.475,5.475,0,0,0,4.021-1.62,1,1,0,0,0-.049-1.421,1.018,1.018,0,0,0-1.436-.02,3.853,3.853,0,0,1-5.289-.076,1.02,1.02,0,0,0-1.434-.02,1,1,0,0,0,.046,1.422A6.032,6.032,0,0,0-240.562,570.007Z" transform="translate(307.126 -523.862)" fill="#fff" opacity="0.2"/><path d="M-216.566,551.508a50.238,50.238,0,0,1,6.818,47.956c-4.529,11.641,5.611,25.906,15.347,17.714,12.993-10.921,14.165-24.79,12.694-33.063-3.39-19.079-14.687-33.95-23.559-37.093C-215.294,543.469-221.855,544.389-216.566,551.508Z" transform="translate(325.552 -538.808)" fill="#943a22"/><path d="M-224.9,608.947c-13.8-.191-.366-26.8-1.649-27.86-8.161-6.761-5.014-19.146.476-21.227,6.834-2.589,18.894,5.3,16.486,16.194-1.407,6.38-7.106,2.66-7.8,12.819C-217.9,596.474-218.408,609.035-224.9,608.947Z" transform="translate(316.491 -528.853)" fill="#943a22"/><path d="M-223.117,571.111a7.559,7.559,0,0,0,4.934-1.61.876.876,0,0,0-.068-1.421,1.449,1.449,0,0,0-1.758-.025,5.538,5.538,0,0,1-6.5-.093,1.451,1.451,0,0,0-1.758-.022.876.876,0,0,0,.064,1.422A8.381,8.381,0,0,0-223.117,571.111Z" transform="translate(318.514 -523.107)" fill="#fff" opacity="0.2"/><path d="M-223.892,571.84a4.149,4.149,0,0,1-3.745-4.509,4.148,4.148,0,0,1,4.365-3.908,4.151,4.151,0,0,1,3.744,4.511A4.149,4.149,0,0,1-223.892,571.84Z" transform="translate(319.17 -526.047)"/><path d="M-225.639,565.958a.845.845,0,0,0,.891-.794.854.854,0,0,0-.767-.923.85.85,0,0,0-.891.8A.848.848,0,0,0-225.639,565.958Z" transform="translate(320.03 -525.474)" fill="#fff" opacity="0.75"/><path d="M-240.636,571.441a4.154,4.154,0,0,1-3.747-4.514,4.158,4.158,0,0,1,4.37-3.915,4.155,4.155,0,0,1,3.749,4.519A4.154,4.154,0,0,1-240.636,571.441Z" transform="translate(307.562 -526.332)"/><path d="M-242.384,565.55a.849.849,0,0,0,.892-.8.846.846,0,0,0-.764-.921.844.844,0,0,0-.892.8A.845.845,0,0,0-242.384,565.55Z" transform="translate(308.425 -525.757)" fill="#fff" opacity="0.75"/><path d="M-228.007,630.585c-11.864-.623-20.54-6.209-22.643-19.9-1.373-8.937,1.177-20.267,9.445-25.147,11.375-6.717,12.782-9.9,13.012-14.883.13-2.911-1.617-7.623-.176-12.116,1.424-4.46,7.423-10.178,13.664-11.837a7.886,7.886,0,0,0-2.734,4.263,9.711,9.711,0,0,1,6.632-3.313c-4.892,4.477,5.063,8.742-4.89,16.546-4.455,3.493-9.36,12.775-2.628,18.75,6.163,5.462,10.909,10.987,11.234,20.245C-206.484,620.565-213.527,631.351-228.007,630.585Z" transform="translate(302.983 -537.63)" fill="#faedcb"/><path d="M-182.021,589.4a7.541,7.541,0,0,0-7.541-7.541,7.535,7.535,0,0,0-7.46,6.505h-48.64a7.537,7.537,0,0,0-7.464-6.505,7.542,7.542,0,0,0-7.54,7.541,7.511,7.511,0,0,0,2.076,5.191,7.5,7.5,0,0,0-2.076,5.19,7.54,7.54,0,0,0,7.54,7.538,7.533,7.533,0,0,0,7.464-6.5h48.64a7.531,7.531,0,0,0,7.46,6.5,7.539,7.539,0,0,0,7.541-7.538,7.507,7.507,0,0,0-2.074-5.19A7.517,7.517,0,0,0-182.021,589.4Z" transform="translate(296.284 -513.259)" fill="#e9d9c5"/><g transform="translate(53.193 73.603)"><path d="M-240.487,585.155c.664,2.326.687,8.612-2.855,8.73-2.008.066-6.016-3.661-6.605-8.022" transform="translate(250.521 -584.578)" fill="#faedcb"/><path d="M-243.154,594.7c-2.337,0-6.5-3.84-7.127-8.523a.574.574,0,0,1,.491-.647.584.584,0,0,1,.65.493c.552,4.1,4.316,7.524,5.977,7.524h.041a1.989,1.989,0,0,0,1.62-.9c1.3-1.79,1.15-5.513.7-7.1a.575.575,0,0,1,.393-.711.575.575,0,0,1,.716.395c.474,1.671.721,5.9-.874,8.092a3.164,3.164,0,0,1-2.518,1.371Z" transform="translate(250.286 -584.815)" fill="#a5a595"/></g><g transform="translate(60.583 61.746)"><path d="M-218.766,589.809c-1.551,6.509-8.4,12.33-14.282,11.549-6.739-.892-13.22-7.714-12.4-23.144" transform="translate(246.201 -577.533)" fill="#faedcb"/><path d="M-231.724,602.389a9.056,9.056,0,0,1-1.136-.076c-6.846-.907-13.847-7.646-12.99-23.852a.7.7,0,0,1,.72-.648.69.69,0,0,1,.645.718c-.811,15.276,5.565,21.6,11.8,22.431,5.433.72,12.01-4.643,13.532-11.031a.685.685,0,0,1,.818-.508.681.681,0,0,1,.506.823C-219.392,596.818-225.919,602.389-231.724,602.389Z" transform="translate(245.921 -577.812)" fill="#a5a595"/></g><path d="M-249.022,577.822a7.076,7.076,0,0,0,6.436,7.657,7.072,7.072,0,0,0,7.662-6.437,7.075,7.075,0,0,0-6.441-7.658A7.08,7.08,0,0,0-249.022,577.822Z" transform="translate(304.336 -520.541)"/><path d="M-244.213,574.936a1.369,1.369,0,0,0,1.48-1.239,1.369,1.369,0,0,0-1.246-1.48,1.366,1.366,0,0,0-1.476,1.243A1.366,1.366,0,0,0-244.213,574.936Z" transform="translate(306.824 -519.948)" fill="#fff" opacity="0.75"/><g transform="translate(317.748 205.558)"><path d="M-94.038,664.168a7.09,7.09,0,0,0,2.318,3.921,21.466,21.466,0,0,0,2.911-.361A10.525,10.525,0,0,1-94.038,664.168Z" transform="translate(94.038 -661.764)" fill="#cea86c"/><path d="M-89.963,662.748c.059.919,2.028,2.95,3.225,3.686a11.613,11.613,0,0,0,1.669-1.737A21.258,21.258,0,0,1-89.963,662.748Z" transform="translate(96.863 -662.748)" fill="#cea86c"/></g><g transform="translate(274.284 205.131)"><path d="M-119.708,663.914a7.056,7.056,0,0,0,2.321,3.918,21.018,21.018,0,0,0,2.911-.352A10.507,10.507,0,0,1-119.708,663.914Z" transform="translate(119.708 -661.513)" fill="#faedcb"/><path d="M-115.632,662.5c.056.916,2.2,3.051,3.395,3.783a10.7,10.7,0,0,0,1.5-1.834A21.385,21.385,0,0,1-115.632,662.5Z" transform="translate(122.533 -662.496)" fill="#faedcb"/></g><path d="M-251.862,633.929c-.125-1.175,1.344-4.38,2.823-5.694-.616,2.448-.884,4.829-.383,5.694Z" transform="translate(302.381 -481.114)" fill="#cea86c"/><path d="M-256.722,633.862c-.129-1.17,1.343-4.38,2.824-5.694-.621,2.453-.889,4.836-.388,5.694Z" transform="translate(299.012 -481.16)" fill="#cea86c"/><path d="M-274.573,627.016c-.012-1,1.493-3.591,2.856-4.575-.728,2.018-1.153,4.011-.8,4.778Z" transform="translate(286.644 -485.13)" fill="#faedcb"/><path d="M-278.315,626.677c-.008-1,1.5-3.59,2.856-4.575-.725,2.018-1.151,4.009-.8,4.782Z" transform="translate(284.05 -485.365)" fill="#faedcb"/><path d="M-181.025,613.464c1.19,2.941,11.712,9.284,18.17,11.441-5.791.267-15.208-2.425-19.937-5.234.979,2.5,6.654,5.816,9.038,6.712-5.977-.091-13.595-2.347-18.171-6.19" transform="translate(343.933 -491.353)" fill="#faedcb"/></g><g transform="translate(23.265 760.914)"><path d="M-88.322,680.572l-1.07-1.85,1.07-1.849h2.138l1.068,1.849-1.068,1.85Z" transform="translate(110.04 -666.969)" fill="#cea86c"/><path d="M-93.209,678.829l-1.51-2.617,1.51-2.614h3.019l1.511,2.614-1.511,2.617Z" transform="translate(106.348 -669.239)" fill="#cea86c"/><path d="M-95.668,680.217l-.628-1.095.628-1.095h1.262l.63,1.095-.63,1.095Z" transform="translate(105.254 -666.169)" fill="#cea86c"/><path d="M-88.231,672.386l2.364-1.363,2.361,1.363v2.732l-2.361,1.364-2.364-1.364Z" transform="translate(110.844 -671.023)" fill="#cea86c"/><path d="M-101.587,674.655l1.7-.977,1.7.977v1.966l-1.7.979-1.7-.979Z" transform="translate(101.587 -669.184)" fill="#cea86c"/><path d="M-83.717,678.282l.876-.506.876.506v1.007l-.876.508-.876-.508Z" transform="translate(113.974 -666.342)" fill="#cea86c"/><path d="M-88.443,681.182l.508.877-.508.876h-1.012l-.5-.876.5-.877Z" transform="translate(109.647 -663.982)" fill="#cea86c"/></g><path d="M-250.351,603.345c-3.644-.433-5.554-.814-6.544-1.8s-1.366-2.9-1.8-6.546a1.163,1.163,0,0,0-1.153-1.023A1.161,1.161,0,0,0-261,595c-.43,3.645-.809,5.557-1.8,6.546s-2.9,1.368-6.546,1.8a1.154,1.154,0,0,0-1.019,1.15,1.154,1.154,0,0,0,1.019,1.148c3.647.432,5.557.814,6.546,1.8s1.366,2.9,1.8,6.542a1.159,1.159,0,0,0,1.151,1.023,1.16,1.16,0,0,0,1.153-1.023c.432-3.644.809-5.55,1.8-6.542s2.9-1.37,6.544-1.8a1.157,1.157,0,0,0,1.024-1.148A1.157,1.157,0,0,0-250.351,603.345Z" transform="translate(7.863 36.482)" fill="#fad950"/><g transform="translate(-245.159 611.403)" opacity="0.7"><path d="M-255.5,586.778c-.835,1.438-2.431,2.066-3.573,1.4s-1.392-2.362-.559-3.794,2.43-2.064,3.569-1.4S-254.668,585.347-255.5,586.778Z" transform="translate(260.12 -582.721)" fill="url(#a)"/><path d="M-255.5,593.416c-.835,1.436-2.431,2.066-3.573,1.4s-1.392-2.362-.559-3.8,2.43-2.059,3.569-1.4S-254.668,591.986-255.5,593.416Z" transform="translate(260.12 -578.119)" fill="url(#b)"/><path d="M-217.751,586.778c-.831,1.438-2.431,2.066-3.573,1.4s-1.392-2.362-.557-3.794,2.433-2.064,3.573-1.4S-216.922,585.347-217.751,586.778Z" transform="translate(286.284 -582.721)" fill="url(#c)"/><path d="M-217.751,593.416c-.831,1.436-2.431,2.066-3.573,1.4s-1.392-2.362-.557-3.8,2.433-2.059,3.573-1.4S-216.922,591.986-217.751,593.416Z" transform="translate(286.284 -578.119)" fill="url(#d)"/></g></g></svg>