<svg xmlns="http://www.w3.org/2000/svg" width="14.263" height="14" viewBox="0 0 14.263 14"><g transform="translate(-943.352 -735.848)"><path d="M955.352,742.051v5.8h-10v-10h6.232a1.064,1.064,0,0,0,.753-.313l.834-.834a.5.5,0,0,0-.353-.853h-7.466a2,2,0,0,0-2,2v10a2,2,0,0,0,2,2h10a2,2,0,0,0,2-2v-7a.5.5,0,0,0-.854-.354l-.853.853A1,1,0,0,0,955.352,742.051Z" fill="#558ad2"/><path d="M949.741,744.3l1.162-.447a.992.992,0,0,0,.348-.226l6.218-6.218a.5.5,0,0,0,0-.707l-.707-.707a.5.5,0,0,0-.707,0l-6.218,6.218a.992.992,0,0,0-.226.348l-.447,1.162A.5.5,0,0,0,949.741,744.3Z" fill="#558ad2"/></g></svg>