<svg xmlns="http://www.w3.org/2000/svg" width="16.282" height="23.269" viewBox="0 0 16.282 23.269">
  <g id="icon_bell-fill" transform="translate(-219.538 -744.134)">
    <path id="パス_106" data-name="パス 106" d="M235.632,759.655a1.5,1.5,0,0,0-.026-1.5l-.056-.094a2.061,2.061,0,0,1-.3-1.063v-3.055a7.577,7.577,0,0,0-4.885-7.077,2.892,2.892,0,0,0-5.78.158v.009a7.558,7.558,0,0,0-4.482,6.91V757a2.062,2.062,0,0,1-.3,1.063l-.056.094a1.5,1.5,0,0,0-.026,1.5l-.015.025h.03a1.5,1.5,0,0,0,1.3.75h13.285a1.5,1.5,0,0,0,1.3-.75h.029Z" fill="#3a3f48"/>
    <path id="パス_107" data-name="パス 107" d="M229.484,762.558h-4.215a1.5,1.5,0,0,0-1.478,1.754l.014.079a3.623,3.623,0,0,0,7.143,0l.014-.079a1.5,1.5,0,0,0-1.478-1.754Z" fill="#3a3f48"/>
  </g>
</svg>
