<svg xmlns="http://www.w3.org/2000/svg" width="23.756" height="25.005" viewBox="0 0 23.756 25.005">
  <path id="icon-gear-fill" d="M812.942,2160.763a12.5,12.5,0,0,1,5.114,0,5,5,0,0,0,6.765,3.9,12.477,12.477,0,0,1,2.554,4.432,5,5,0,0,0,0,7.81,12.562,12.562,0,0,1-2.558,4.428,5,5,0,0,0-6.762,3.9,12.5,12.5,0,0,1-5.114,0,5,5,0,0,0-6.765-3.907,12.477,12.477,0,0,1-2.554-4.432,5,5,0,0,0,0-7.808,12.562,12.562,0,0,1,2.558-4.428,5,5,0,0,0,6.762-3.9Zm2.558,15.988a3.75,3.75,0,1,0-3.75-3.75A3.75,3.75,0,0,0,815.5,2176.751Z" transform="translate(-803.622 -2160.498)" fill="#3a3f48"/>
</svg>
