<svg xmlns="http://www.w3.org/2000/svg" xmlns:xlink="http://www.w3.org/1999/xlink" viewBox="0 0 199.99996 200"><defs><style>.cls-1,.cls-13,.cls-14{fill:none;}.cls-2{isolation:isolate;}.cls-3{clip-path:url(#clip-path);}.cls-4{fill:#bfd4ed;}.cls-5,.cls-8{fill:#cea86c;}.cls-6{fill:#faedcb;}.cls-7{fill:#b36120;}.cls-8{opacity:0.5;}.cls-16,.cls-8{mix-blend-mode:multiply;}.cls-9{fill:#943a22;}.cls-10,.cls-11{fill:#fff;}.cls-10{opacity:0.2;}.cls-11{opacity:0.75;}.cls-12{fill:url(#linear-gradient);}.cls-13,.cls-14{stroke-linecap:round;stroke-linejoin:round;stroke-width:2.18107px;}.cls-13{stroke:url(#linear-gradient-2);}.cls-14{stroke:#a5a595;}.cls-15{fill:#a5a595;}.cls-16{fill:#e9d9c5;}</style><clipPath id="clip-path"><path class="cls-1" d="M200,99.99874A100,100,0,1,1,99.99925,0,100.00033,100.00033,0,0,1,200,99.99874Z"/></clipPath><linearGradient id="linear-gradient" x1="156.52718" y1="154.77291" x2="156.52718" y2="119.43409" gradientUnits="userSpaceOnUse"><stop offset="0.24384" stop-color="#eb631a"/><stop offset="0.4648" stop-color="#df631b"/><stop offset="0.8623" stop-color="#c0611f"/><stop offset="1" stop-color="#b36120"/></linearGradient><linearGradient id="linear-gradient-2" x1="158.61756" y1="151.30293" x2="158.61756" y2="121.91282" gradientUnits="userSpaceOnUse"><stop offset="0.06815" stop-color="#80191e" stop-opacity="0"/><stop offset="1" stop-color="#80191e" stop-opacity="0.3"/></linearGradient></defs><g class="cls-2"><g id="レイヤー_1" data-name="レイヤー 1"><g class="cls-3"><circle class="cls-4" cx="101.80528" cy="96.68509" r="111.56618" transform="translate(3.00932 196.44319) rotate(-88.79998)"/><path class="cls-5" d="M66.59646,111.12029l57.85089,45.713c16.77232,27.02053,33.1601,16.26884,36.923,36.42063,4.81238,25.75684,2.37527,57.85951-6.01685,79.066.38731-5.80122-.23754-10.10888-1.51036-11.98062a86.647,86.647,0,0,1-5.22413,24.97576c.14331-3.05547-.324-10.256-1.41862-12.57823-4.91706,14.76629-7.46786,60.8272-7.46786,91.64423,10.52586,3.03736,18.02465,14.62433,11.3404,21.41945H107.49936c-2.95357-13.52574-2.78516-31.8769-.08777-54.7369C102.166,346.54121,92.72,358.51918,82.80024,364.38107c9.91079,2.1841,18.76239,14.02659,13.30454,21.41945H-56.31147C-55.6545,301.02635-31.97452,145.65437,66.59646,111.12029Z"/><path class="cls-6" d="M-53.2889,305.676,21.142,196.22426c0-29.48223-2.56243-53.18531-2.56243-53.18531s106.09239-44.67375,120.88971-27.2812c13.27281,15.60012,21.90113,44.4809,21.90113,77.49617,0,28.12944-18.01816,52.23912-39.03366,63.03073,2.8231-5.645,4.41344-11.40746,2.91352-16.29594-2.79865,7.975-10.4587,21.53432-18.45966,27.55364,3.5977-6.74343,6.479-18.65056,4.74785-24.08761C95.87887,284.121,60.33308,314.41263,63.49907,364.38107c12.07164,1.753,22.17463,12.01023,15.2794,21.41945H27.76478c0-10.9234-1.66065-39.79638,3.65706-65.93908C27.51059,338.845,15.13425,358.80325,3.49816,364.38107c11.63609,5.62951,15.51774,13.59156,12.87269,21.41945H-61.79389C-61.79389,353.60228-53.2889,305.676-53.2889,305.676Z"/><path class="cls-7" d="M-69.29387,283.66672c1.03132-45.382,30.70553-128.269,85.36783-147.86557,6.963-17.01768,26.55925-34.03522,45.78375-34.07977,0,0,21.286,38.248,21.286,48.504-2.25325,9.4272-6.83588,1.89752-8.18867-1.66395-4.57748-12.04393-19.038-16.64848-21.20214-16.52964,14.77934,57.38959-67.42462,67.15372-72.157,161.40042-37.2161,25.37205-46.09095,62.85638-33.92307,92.36835H-73.4654c-4.85176-3.63127-8.60955-8.90573-11.31977-15.21943-5.02346,9.93453-20.891,15.21943-34.90283,15.21943,26.97166-15.688,3.57708-43.123,7.43613-56.0717C-103.64431,300.84566-93.3121,289.95451-69.29387,283.66672Z"/><path class="cls-8" d="M164.97577,135.71456c-6.24657,30.33429-19.6291,44.6074-42.82238,46.3927-22.1593,1.704-54.04591-11.15314-72.22666-25.42625-13.90863-10.91957-25.21162-31.68588-18.17957-46.39084Z"/><path class="cls-9" d="M131.52,30.444c12.12015,2.39454,25.85256,10.78263,32.71741,20.88952,17.019,25.05586,22.81757,46.91152,13.451,68.32264-4.12949,9.43631-9.73842,15.41175-15.61317,23.6436Z"/><path class="cls-7" d="M170.2155,99.696c2.3417-46.83737-31.0122-74.70349-66.53328-80.81191,3.12779,2.62692,6.63892,4.9202,6.95908,7.24891-1.86527-2.38422-8.19185-4.75166-13.096-5.17955,1.80858.92094,4.183,3.75063,4.09011,4.589a18.028,18.028,0,0,0-10.89373-1.68061c1.54592.62088,2.88391,1.31023,3.0149,2.0157C55.46453,29.10589,31.85435,70.6688,31.85435,99.96517c0,12.78616,9.013,25.87039,19.11862,19.43733,15.63776-9.95264,10.69558,4.05914,11.85221,18.76609.89518,11.38552,23.79868,33.85438,58.65829,33.23351,24.97976-.448,41.03708-9.36785,47.05908-24.2C171.93881,138.836,169.77664,108.47658,170.2155,99.696Z"/><path class="cls-9" d="M144.20681,82.45325c-7.19014-10.25084-1.80342-27.15933,7.4019-20.56169,5.45532,3.90938,11.70958,16.72779,5.126,22.83224Z"/><path class="cls-10" d="M150.75928,89.087a6.72748,6.72748,0,0,1-5.463-2.9632,2.129,2.129,0,0,1,.13945-2.50822,1.198,1.198,0,0,1,1.97764,0c1.81109,2.4753,5.20485,2.4753,7.296,0a1.1957,1.1957,0,0,1,1.97512,0,2.1349,2.1349,0,0,1-.13814,2.50822A7.63473,7.63473,0,0,1,150.75928,89.087Z"/><path d="M149.87892,84.8503c-2.69277,0-4.73108-2.77721-4.54258-6.18971.18982-3.41435,2.53533-6.19235,5.22677-6.19235,2.68894,0,4.72593,2.778,4.53611,6.19235C154.90953,82.07309,152.56653,84.8503,149.87892,84.8503Z"/><path class="cls-11" d="M151.96244,76.61331a1.07837,1.07837,0,0,1-.92821-1.25986,1.23852,1.23852,0,0,1,1.06766-1.26634,1.08408,1.08408,0,0,1,.92425,1.26634A1.23181,1.23181,0,0,1,151.96244,76.61331Z"/><path class="cls-9" d="M71.96916,47.84105c-8.40691,13.45092-13.1586,39.4761,1.56125,69.5858,6.69127,35.4615-8.48238,46.36163-24.75649,33.90211-22.7117-17.39189-27.62031-37.99615-25.64914-51.29862C27.1394,72.93168,44.75929,51.409,61.26314,38.02721,74.73544,27.10381,83.12039,29.99788,71.96916,47.84105Z"/><path class="cls-9" d="M112.1658,144.44739c4.69763-.13562,1.15279-44.3544,3.16916-46.08219,12.82618-11.0002,7.94928-32.25838-.30469-36.32269C100.841,55.05573,85.59822,71.548,89.09785,89.64083c2.0473,10.59215,10.9815,4.56635,11.83741,21.39684C101.57544,123.63719,102.08609,144.73516,112.1658,144.44739Z"/><path class="cls-6" d="M142.00194,163.81823c23.64256-1.33864,32.56764-15.91776,33.01047-38.80751.44533-23.19509-2.654-36.43292-17.17522-40.70449-18.22464-5.35972-20.1157-11.1957-19.40322-18.84606.44666-4.7937,4.14245-7.02235,2.00738-14.49651-2.12092-7.418-15.16268-17.5817-26.4954-18.37231,1.84466.61308,7.24579,2.63975,7.56079,5.013a21.26465,21.26465,0,0,0-9.9876-2.976,9.09592,9.09592,0,0,1,5.21,4.1953c-5.33913-.21295-5.28229,13.25475,4.08561,19.05333,5.77931,3.57826,10.482,16.0584,2.69673,24.42838-8.96262,9.63578-13.62654,17.11311-13.62654,36.90668,0,3.39253-.07112,13.49744,0,16.05853C110.33158,151.329,124.94556,164.78371,142.00194,163.81823Z"/><path class="cls-10" d="M108.82506,91.62229a8.94959,8.94959,0,0,1-6.8417-3.18263,2.037,2.037,0,0,1,.11884-2.69407,1.62353,1.62353,0,0,1,2.4539,0,6.13209,6.13209,0,0,0,9.05172,0,1.61932,1.61932,0,0,1,2.45007,0,2.04193,2.04193,0,0,1-.11751,2.69407A9.82742,9.82742,0,0,1,108.82506,91.62229Z"/><path d="M109.80865,87.59738c-3.30584.48922-6.302-2.08351-6.68094-5.73341-.37753-3.65135,2.00539-7.02182,5.30885-7.511,3.30069-.48856,6.29563,2.08548,6.67515,5.73671C115.48724,83.73955,113.10815,87.108,109.80865,87.59738Z"/><path class="cls-11" d="M111.3978,78.86455a1.23491,1.23491,0,0,1-1.4793-1.01914,1.37512,1.37512,0,0,1,.9216-1.64,1.23532,1.23532,0,0,1,1.47163,1.02814A1.36786,1.36786,0,0,1,111.3978,78.86455Z"/><path class="cls-12" d="M163.63712,133.70733a67.425,67.425,0,0,1-5.1312-14.27324c0,9.59123-6.31625,16.11789-9.14464,17.61912.15492,4.11916-.22208,6.19751-.22208,8.0292,0,5.20876,3.34471,10.48322,8.698,9.59123,5.07834-.84678,6.022-6.77714,6.022-11.82054A67.31082,67.31082,0,0,0,163.63712,133.70733Z"/><line class="cls-13" x1="158.7292" y1="123.00336" x2="158.50592" y2="150.21239"/><path class="cls-14" d="M139.94169,138.17374c14.88522,1.33349,20.10937-9.57828,17.8955-31.45218"/><path class="cls-14" d="M158.50592,115.41949c.448,5.57531,2.00725,18.06577,8.69917,21.635"/><path class="cls-15" d="M141.22746,137.70765a2.30037,2.30037,0,1,1-2.3003-2.30161A2.30064,2.30064,0,0,1,141.22746,137.70765Z"/><path class="cls-16" d="M167.99649,101.23283a10.96154,10.96154,0,1,1-10.957-10.96213A10.95993,10.95993,0,0,1,167.99649,101.23283Z"/><path d="M168.74255,99.63272a10.99247,10.99247,0,1,1-10.98917-10.99108A10.99344,10.99344,0,0,1,168.74255,99.63272Z"/><path class="cls-11" d="M157.75338,95.27351a2.11959,2.11959,0,1,1,2.11829-2.11311A2.12108,2.12108,0,0,1,157.75338,95.27351Z"/></g></g></g></svg>