<svg xmlns="http://www.w3.org/2000/svg" width="24.096" height="25.004" viewBox="0 0 24.096 25.004">
  <path id="icon_gear" d="M804.675,1123.25a12.584,12.584,0,0,1-1.223-2.907,3.75,3.75,0,0,0,0-6.684,12.487,12.487,0,0,1,3.126-5.421,3.75,3.75,0,0,0,5.789-3.343,12.484,12.484,0,0,1,6.259,0,3.751,3.751,0,0,0,5.79,3.34,12.6,12.6,0,0,1,3.129,5.42,3.749,3.749,0,0,0,0,6.683,12.5,12.5,0,0,1-3.126,5.422,3.75,3.75,0,0,0-5.789,3.342,12.484,12.484,0,0,1-6.259,0,3.751,3.751,0,0,0-5.79-3.34A12.5,12.5,0,0,1,804.675,1123.25Zm7.075.245a6.235,6.235,0,0,1,2.812,3.462,9.949,9.949,0,0,0,1.874,0,6.254,6.254,0,0,1,7.22-4.169,9.91,9.91,0,0,0,.935-1.622,6.254,6.254,0,0,1,0-8.335,10.152,10.152,0,0,0-.937-1.623,6.25,6.25,0,0,1-7.217-4.167,10.021,10.021,0,0,0-1.873,0,6.254,6.254,0,0,1-7.22,4.169,9.949,9.949,0,0,0-.935,1.623,6.254,6.254,0,0,1,0,8.335,10.185,10.185,0,0,0,.937,1.622A6.245,6.245,0,0,1,811.75,1123.495Zm3.75-2.745a3.75,3.75,0,1,1,3.75-3.75A3.75,3.75,0,0,1,815.5,1120.75Zm0-2.5a1.25,1.25,0,1,0-1.25-1.25A1.25,1.25,0,0,0,815.5,1118.25Z" transform="translate(-803.452 -1104.498)" fill="#3a3f48"/>
</svg>
