<svg xmlns="http://www.w3.org/2000/svg" viewBox="0 0 18.61 15.22"><defs><style>.cls-1{fill:#3a3f48;}</style></defs><title>アセット 1</title><g id="レイヤー_2" data-name="レイヤー 2"><g id="レイヤー_1-2" data-name="レイヤー 1"><path class="cls-1" d="M6.27,1.5a4.77,4.77,0,1,0,0,9.53h4.45a2.39,2.39,0,0,1,2.67,2.09,6.31,6.31,0,0,0,1.86-1.6,8.51,8.51,0,0,0,1.86-5.25A4.78,4.78,0,0,0,12.34,1.5H6.27m0-1.5h6.07a6.27,6.27,0,0,1,6.27,6.27c0,4.59-3.38,9-7.38,9-.31,0-.62-.22-.23-.5a1.76,1.76,0,0,0,.9-1.43c0-.34-.28-.76-1.18-.76H6.27A6.27,6.27,0,1,1,6.27,0Z"/></g></g></svg>