<svg xmlns="http://www.w3.org/2000/svg" width="25" height="25" viewBox="0 0 25 25">
  <path id="icon_group" d="M652.5,2182.685V2178.5c0-1.6,1.244-2.865,3.084-3.585a10.645,10.645,0,0,0-10.018,1.41A10.022,10.022,0,0,0,652.5,2182.685Zm11.1-4.578c-.494-.666-2.137-1.357-4.225-1.357-2.508,0-4.375,1-4.375,1.75v4.5A10,10,0,0,0,663.6,2178.107Zm-11.662-5.732a2.813,2.813,0,1,0-2.813-2.812A2.812,2.812,0,0,0,651.938,2172.375Zm7.437,1.25a2.5,2.5,0,1,0-2.5-2.5A2.5,2.5,0,0,0,659.375,2173.625ZM655,2185.5a12.5,12.5,0,1,1,12.5-12.5A12.5,12.5,0,0,1,655,2185.5Z" transform="translate(-642.5 -2160.5)" fill="#3a3f48"/>
</svg>
