<svg xmlns="http://www.w3.org/2000/svg" width="26" height="26" viewBox="0 0 26 26">
  <path id="icon_users" d="M89.9,827.6v-4.352c0-1.667,1.294-2.98,3.207-3.728a11.071,11.071,0,0,0-10.419,1.466A10.42,10.42,0,0,0,89.9,827.6Zm11.544-4.76c-.514-.693-2.222-1.412-4.394-1.412-2.608,0-4.55,1.037-4.55,1.82v4.68A10.4,10.4,0,0,0,101.444,822.835Zm-12.128-5.962a2.925,2.925,0,1,0-2.926-2.924A2.925,2.925,0,0,0,89.316,816.873Zm7.734,1.3a2.6,2.6,0,1,0-2.6-2.6A2.6,2.6,0,0,0,97.05,818.173Zm-4.55,12.35a13,13,0,1,1,13-13A13,13,0,0,1,92.5,830.523Z" transform="translate(-79.5 -804.523)" fill="#3a3f48"/>
</svg>
